<?xml version="1.0" encoding="UTF-8"?>
<svg id="Layer_1" data-name="Layer 1" xmlns="http://www.w3.org/2000/svg" viewBox="0 0 1920 913.51">
  <defs>
    <style>
      .cls-1 {
        fill: #192426;
        stroke-width: 0px;
      }
    </style>
  </defs>
  <path class="cls-1" d="M712.27,517.98c12.44,0,22.52-10.08,22.52-22.52,0-124.18,101.03-225.21,225.21-225.21s225.21,101.03,225.21,225.21c0,12.44,10.08,22.52,22.52,22.52s22.52-10.08,22.52-22.52c0-149.01-121.23-270.25-270.25-270.25s-270.25,121.23-270.25,270.25c0,12.44,10.08,22.52,22.52,22.52Z"/>
  <path class="cls-1" d="M1432.93,450.42h-135.12c-12.44,0-22.52,10.08-22.52,22.52s10.08,22.52,22.52,22.52h135.12c12.44,0,22.52-10.08,22.52-22.52s-10.08-22.52-22.52-22.52Z"/>
  <path class="cls-1" d="M1220.06,294c4.72,0,9.48-1.48,13.54-4.54l109.3-82.43c9.93-7.49,11.91-21.61,4.42-31.54-7.49-9.94-21.61-11.91-31.54-4.42l-109.3,82.43c-9.93,7.49-11.91,21.61-4.42,31.54,4.43,5.87,11.17,8.96,18,8.96Z"/>
  <path class="cls-1" d="M1036.23,177.34c2.24.7,4.5,1.03,6.73,1.03,9.59,0,18.47-6.17,21.49-15.8l41.7-133.32c3.72-11.87-2.9-24.5-14.77-28.21-11.87-3.71-24.51,2.9-28.22,14.77l-41.7,133.32c-3.72,11.87,2.9,24.5,14.77,28.21Z"/>
  <path class="cls-1" d="M812.63,177.01c3.02,9.62,11.9,15.79,21.48,15.79,2.23,0,4.5-.34,6.75-1.04,11.87-3.72,18.47-16.36,14.75-28.23l-41.79-133.23c-3.72-11.87-16.36-18.46-28.23-14.75-11.87,3.72-18.47,16.36-14.75,28.23l41.79,133.23Z"/>
  <path class="cls-1" d="M550.49,244.96l109.35,82.34c4.06,3.06,8.81,4.53,13.53,4.53,6.83,0,13.58-3.1,18.01-8.97,7.48-9.93,5.49-24.06-4.44-31.54l-109.35-82.34c-9.94-7.49-24.05-5.5-31.54,4.44-7.48,9.94-5.49,24.06,4.44,31.54Z"/>
  <path class="cls-1" d="M644.71,472.94c0-12.44-10.08-22.52-22.52-22.52h-135.12c-12.44,0-22.52,10.08-22.52,22.52s10.08,22.52,22.52,22.52h135.12c12.44,0,22.52-10.08,22.52-22.52Z"/>
  <path class="cls-1" d="M1324.36,742.88c-3.05-8.48-11.16-14.18-20.19-14.18h-64.83l-46.02-127.65c-3.05-8.48-11.16-14.18-20.2-14.18h-450.81c-9.03,0-17.15,5.7-20.19,14.18l-46.02,127.66h-40.27c-9.03,0-17.14,5.7-20.19,14.18l-51.13,141.87c-2.38,6.59-1.4,13.93,2.62,19.62,4.01,5.72,10.58,9.14,17.57,9.14h790.6c6.99,0,13.56-3.42,17.57-9.13,4.02-5.7,5-13.04,2.63-19.63l-51.13-141.87ZM781.65,771.64h41.15l-20.57,57.08-20.57-57.08ZM868.44,771.64h105.1l35.66,98.93h-176.4l35.64-98.93ZM988.62,728.7h-64.83l-35.65-98.9h269.92l35.64,98.9h-205.07ZM878.14,728.7h-176.4l35.64-98.9h105.1l35.66,98.9ZM771.66,870.57h-176.4l35.64-98.93h105.1l35.66,98.93ZM1054.83,870.57l-35.65-98.93h269.91l35.64,98.93h-269.9Z"/>
</svg>