<?xml version="1.0" encoding="utf-8"?>
<!-- Generator: Adobe Illustrator 28.1.0, SVG Export Plug-In . SVG Version: 6.00 Build 0)  -->
<svg version="1.1" id="Layer_1" xmlns="http://www.w3.org/2000/svg" xmlns:xlink="http://www.w3.org/1999/xlink" x="0px" y="0px"
	 viewBox="0 0 1920 913.5" style="enable-background:new 0 0 1920 913.5;" xml:space="preserve">
<style type="text/css">
	.st0{fill:#37304B;}
</style>
<path class="st0" d="M712.3,518c12.4,0,22.5-10.1,22.5-22.5c0-124.2,101-225.2,225.2-225.2s225.2,101,225.2,225.2
	c0,12.4,10.1,22.5,22.5,22.5s22.5-10.1,22.5-22.5c0-149-121.2-270.2-270.2-270.2S689.8,346.4,689.8,495.5
	C689.8,507.9,699.8,518,712.3,518L712.3,518z"/>
<path class="st0" d="M1432.9,450.4h-135.1c-12.4,0-22.5,10.1-22.5,22.5s10.1,22.5,22.5,22.5h135.1c12.4,0,22.5-10.1,22.5-22.5
	S1445.4,450.4,1432.9,450.4z"/>
<path class="st0" d="M1220.1,294c4.7,0,9.5-1.5,13.5-4.5l109.3-82.4c9.9-7.5,11.9-21.6,4.4-31.5c-7.5-9.9-21.6-11.9-31.5-4.4
	l-109.3,82.4c-9.9,7.5-11.9,21.6-4.4,31.5C1206.5,290.9,1213.2,294,1220.1,294z"/>
<path class="st0" d="M1036.2,177.3c2.2,0.7,4.5,1,6.7,1c9.6,0,18.5-6.2,21.5-15.8l41.7-133.3c3.7-11.9-2.9-24.5-14.8-28.2
	s-24.5,2.9-28.2,14.8l-41.7,133.3C1017.7,161,1024.4,173.6,1036.2,177.3L1036.2,177.3z"/>
<path class="st0" d="M812.6,177c3,9.6,11.9,15.8,21.5,15.8c2.2,0,4.5-0.3,6.8-1c11.9-3.7,18.5-16.4,14.8-28.2L813.8,30.3
	c-3.7-11.9-16.4-18.5-28.2-14.8c-11.9,3.7-18.5,16.4-14.8,28.2L812.6,177z"/>
<path class="st0" d="M550.5,245l109.3,82.3c4.1,3.1,8.8,4.5,13.5,4.5c6.8,0,13.6-3.1,18-9c7.5-9.9,5.5-24.1-4.4-31.5L577.6,209
	c-9.9-7.5-24-5.5-31.5,4.4C538.6,223.4,540.6,237.5,550.5,245L550.5,245z"/>
<path class="st0" d="M644.7,472.9c0-12.4-10.1-22.5-22.5-22.5H487.1c-12.4,0-22.5,10.1-22.5,22.5s10.1,22.5,22.5,22.5h135.1
	C634.6,495.5,644.7,485.4,644.7,472.9z"/>
<path class="st0" d="M1324.4,742.9c-3.1-8.5-11.2-14.2-20.2-14.2h-64.8l-46-127.7c-3.1-8.5-11.2-14.2-20.2-14.2H722.3
	c-9,0-17.2,5.7-20.2,14.2l-46,127.7h-40.3c-9,0-17.1,5.7-20.2,14.2l-51.1,141.9c-2.4,6.6-1.4,13.9,2.6,19.6c4,5.7,10.6,9.1,17.6,9.1
	h790.6c7,0,13.6-3.4,17.6-9.1c4-5.7,5-13,2.6-19.6L1324.4,742.9L1324.4,742.9z M781.7,771.6h41.2l-20.6,57.1L781.7,771.6
	L781.7,771.6z M868.4,771.6h105.1l35.7,98.9H832.8L868.4,771.6L868.4,771.6z M988.6,728.7h-64.8l-35.7-98.9h269.9l35.6,98.9H988.6
	L988.6,728.7z M878.1,728.7H701.7l35.6-98.9h105.1L878.1,728.7L878.1,728.7z M771.7,870.6H595.3l35.6-98.9H736L771.7,870.6z
	 M1054.8,870.6l-35.7-98.9h269.9l35.6,98.9H1054.8z"/>
</svg>
