<?xml version="1.0" encoding="utf-8"?>
<!-- Generator: Adobe Illustrator 28.1.0, SVG Export Plug-In . SVG Version: 6.00 Build 0)  -->
<svg version="1.1" id="Layer_1" xmlns="http://www.w3.org/2000/svg" xmlns:xlink="http://www.w3.org/1999/xlink" x="0px" y="0px"
	 viewBox="0 0 1920 913.5" style="enable-background:new 0 0 1920 913.5;" xml:space="preserve">
<style type="text/css">
	.st0{fill:#37304B;}
</style>
<path class="st0" d="M1484.5,182.7c-71,0-136.7-40.5-175-104.6c-38.2,63.8-103.4,104.3-174.3,104.6h-0.9
	c-71.1,0-136.7-40.5-175.1-104.7C921.1,141.9,855.8,182.4,785,182.7h-0.9c-71,0-136.7-40.5-175-104.6
	c-38.2,63.8-103.4,104.3-174.3,104.6h-0.1c-12.6,0-22.8-10.1-22.8-22.7c-0.1-12.6,10.1-22.9,22.7-22.9
	c67.6-0.3,129.1-49.1,153-121.4C591.2,5,602-1.5,613,0.3c10.1,1.6,17.8,9.8,19,19.7c25,70.2,85.7,117,152.1,117h0.7
	c67.6-0.3,129.1-49.1,153-121.4c3.5-10.5,14-17,25-15.4c10.2,1.5,18,9.6,19.3,19.5c25,70.3,85.8,117.2,152.2,117.2h0.7
	c67.6-0.3,129.1-49.1,153.1-121.4c3.5-10.6,14.3-17.1,25.3-15.4c10.1,1.6,17.8,9.8,19,19.7c25.1,70.4,86.3,117.5,152.8,117h0.1
	c12.6,0,22.8,10.1,22.8,22.7c0.1,12.6-10.1,22.9-22.7,22.9L1484.5,182.7L1484.5,182.7z"/>
<path class="st0" d="M1484.5,548.1c-71,0-136.7-40.5-175-104.6c-38.2,63.8-103.4,104.3-174.3,104.6h-0.9
	c-71.1,0-136.7-40.5-175.1-104.7C921.1,507.3,855.8,547.8,785,548.1h-0.9c-71,0-136.7-40.5-175-104.6
	c-38.2,63.8-103.4,104.3-174.3,104.6h-0.1c-12.6,0-22.8-10.2-22.8-22.7c-0.1-12.6,10.1-22.9,22.7-22.9
	c67.6-0.3,129.1-49.1,153-121.4c3.5-10.6,14.3-17.1,25.3-15.4c10.1,1.6,17.8,9.8,19,19.7c25,70.2,85.7,117,152.1,117h0.7
	c67.6-0.3,129.1-49.1,153-121.4c3.5-10.5,14-17,25-15.4c10.2,1.5,18,9.5,19.3,19.5c25,70.3,85.8,117.2,152.2,117.2h0.7
	c67.6-0.3,129.1-49.1,153.1-121.4c3.5-10.6,14.3-17.1,25.3-15.4c10.1,1.6,17.8,9.8,19,19.7c25.1,70.4,86.3,117.5,152.8,117h0.1
	c12.6,0,22.8,10.1,22.8,22.7c0.1,12.6-10.1,22.9-22.7,22.9L1484.5,548.1L1484.5,548.1z"/>
<path class="st0" d="M1484.5,913.5c-71,0-136.7-40.5-175-104.6c-38.2,63.8-103.4,104.3-174.3,104.6h-0.9
	c-71.1,0-136.7-40.5-175.1-104.7C921.1,872.7,855.8,913.2,785,913.5h-0.9c-71,0-136.7-40.5-175-104.6
	c-38.2,63.8-103.4,104.3-174.3,104.6h-0.1c-12.6,0-22.8-10.2-22.8-22.7c-0.1-12.6,10.1-22.9,22.7-22.9
	c67.6-0.3,129.1-49.1,153-121.4c3.5-10.7,14.3-17.1,25.3-15.4c10.1,1.6,17.8,9.8,19,19.7c25,70.2,85.7,117,152.1,117h0.7
	c67.6-0.3,129.1-49.1,153-121.4c3.5-10.5,14-17,25-15.4c10.2,1.5,18,9.5,19.3,19.5c25,70.3,85.8,117.2,152.2,117.2h0.7
	c67.6-0.3,129.1-49.1,153.1-121.4c3.5-10.6,14.3-17.1,25.3-15.4c10.1,1.6,17.8,9.8,19,19.7c25.1,70.4,86.3,117.5,152.8,117h0.1
	c12.6,0,22.8,10.2,22.8,22.7c0.1,12.6-10.1,22.9-22.7,22.9L1484.5,913.5L1484.5,913.5z"/>
</svg>
