<?xml version="1.0" encoding="UTF-8"?>
<svg id="Layer_1" data-name="Layer 1" xmlns="http://www.w3.org/2000/svg" viewBox="0 0 1920 913.51">
  <defs>
    <style>
      .cls-1 {
        fill: #192426;
        stroke-width: 0px;
      }
    </style>
  </defs>
  <path class="cls-1" d="M1484.51,182.7c-71.04,0-136.68-40.46-175.02-104.63-38.17,63.84-103.44,104.31-174.27,104.63h-.86c-71.07,0-136.74-40.48-175.09-104.67-38.16,63.86-103.45,104.35-174.29,104.67h-.86c-71.04,0-136.68-40.47-175.02-104.63-38.17,63.84-103.44,104.31-174.26,104.63h-.11c-12.57,0-22.78-10.15-22.84-22.73-.06-12.61,10.12-22.89,22.73-22.94,67.64-.31,129.14-49.08,153.05-121.36,3.52-10.65,14.32-17.15,25.31-15.38,10.12,1.63,17.79,9.76,19.03,19.7,25.02,70.21,85.74,117.03,152.11,117.03h.65c67.64-.31,129.14-49.08,153.05-121.36,3.48-10.53,14.02-17.03,24.98-15.43,10.18,1.49,18,9.55,19.34,19.55,24.97,70.32,85.76,117.23,152.22,117.23h.65c67.64-.31,129.14-49.08,153.05-121.36,3.52-10.64,14.27-17.14,25.31-15.38,10.12,1.63,17.79,9.76,19.03,19.7,25.1,70.44,86.32,117.55,152.75,117.03h.11c12.57,0,22.78,10.15,22.84,22.73.06,12.61-10.12,22.89-22.73,22.94h-.86Z"/>
  <path class="cls-1" d="M1484.51,548.11c-71.04,0-136.68-40.46-175.02-104.63-38.17,63.84-103.44,104.31-174.27,104.63h-.86c-71.07,0-136.74-40.48-175.09-104.67-38.16,63.86-103.45,104.35-174.29,104.67h-.86c-71.04,0-136.68-40.47-175.02-104.63-38.17,63.84-103.44,104.31-174.26,104.63h-.11c-12.57,0-22.78-10.15-22.84-22.73-.06-12.61,10.12-22.89,22.73-22.94,67.64-.31,129.14-49.08,153.05-121.36,3.52-10.65,14.32-17.14,25.31-15.38,10.12,1.63,17.79,9.76,19.03,19.7,25.02,70.21,85.74,117.03,152.11,117.03h.65c67.64-.31,129.14-49.08,153.05-121.36,3.48-10.53,14.02-17.03,24.98-15.43,10.18,1.49,18,9.55,19.34,19.55,24.97,70.32,85.76,117.23,152.22,117.23h.65c67.64-.31,129.14-49.08,153.05-121.36,3.52-10.64,14.27-17.15,25.31-15.38,10.12,1.63,17.79,9.76,19.03,19.7,25.1,70.44,86.32,117.53,152.75,117.03h.11c12.57,0,22.78,10.15,22.84,22.73.06,12.61-10.12,22.89-22.73,22.94h-.86Z"/>
  <path class="cls-1" d="M1484.51,913.51c-71.04,0-136.68-40.46-175.02-104.63-38.17,63.84-103.44,104.31-174.27,104.63h-.86c-71.07,0-136.74-40.48-175.09-104.67-38.16,63.86-103.45,104.35-174.29,104.67h-.86c-71.04,0-136.68-40.47-175.02-104.63-38.17,63.84-103.44,104.31-174.26,104.63h-.11c-12.57,0-22.78-10.15-22.84-22.73-.06-12.61,10.12-22.89,22.73-22.94,67.64-.31,129.14-49.08,153.05-121.36,3.52-10.65,14.32-17.14,25.31-15.38,10.12,1.63,17.79,9.76,19.03,19.7,25.02,70.21,85.74,117.03,152.11,117.03h.65c67.64-.31,129.14-49.08,153.05-121.36,3.48-10.53,14.02-17.02,24.98-15.43,10.18,1.49,18,9.55,19.34,19.55,24.97,70.32,85.76,117.23,152.22,117.23h.65c67.64-.31,129.14-49.08,153.05-121.36,3.52-10.64,14.27-17.13,25.31-15.38,10.12,1.63,17.79,9.76,19.03,19.7,25.1,70.44,86.32,117.52,152.75,117.03h.11c12.57,0,22.78,10.15,22.84,22.73.06,12.61-10.12,22.89-22.73,22.94h-.86Z"/>
</svg>