<?xml version="1.0" encoding="UTF-8"?>
<svg id="Layer_1" data-name="Layer 1" xmlns="http://www.w3.org/2000/svg" viewBox="0 0 1920 913.51">
  <defs>
    <style>
      .cls-1 {
        fill: #192426;
        stroke-width: 0px;
      }
    </style>
  </defs>
  <path class="cls-1" d="M741.32,626.11c13.42,0,24.3-10.88,24.3-24.3,0-107.18,87.2-194.38,194.38-194.38s194.38,87.2,194.38,194.38c0,13.42,10.88,24.3,24.3,24.3s24.3-10.88,24.3-24.3c0-133.98-109-242.97-242.97-242.97s-242.97,109-242.97,242.97c0,13.42,10.88,24.3,24.3,24.3Z"/>
  <path class="cls-1" d="M1518.84,723.3H401.16c-13.42,0-24.3,10.88-24.3,24.3s10.88,24.3,24.3,24.3h1117.68c13.42,0,24.3-10.88,24.3-24.3s-10.88-24.3-24.3-24.3Z"/>
  <path class="cls-1" d="M1251.57,601.81c0,13.42,10.88,24.3,24.3,24.3h145.78c13.42,0,24.3-10.88,24.3-24.3s-10.88-24.3-24.3-24.3h-145.78c-13.42,0-24.3,10.88-24.3,24.3Z"/>
  <path class="cls-1" d="M498.35,626.11h145.78c13.42,0,24.3-10.88,24.3-24.3s-10.88-24.3-24.3-24.3h-145.78c-13.42,0-24.3,10.88-24.3,24.3s10.88,24.3,24.3,24.3Z"/>
  <path class="cls-1" d="M1215.62,440.47c4.96,0,9.95-1.51,14.27-4.65l117.88-85.71c10.85-7.89,13.25-23.09,5.36-33.94-7.9-10.86-23.09-13.24-33.94-5.37l-117.88,85.7c-10.85,7.89-13.25,23.09-5.36,33.94,4.76,6.54,12.16,10.01,19.67,10.01Z"/>
  <path class="cls-1" d="M572.23,350.11l117.88,85.71c4.32,3.13,9.31,4.65,14.27,4.65,7.51,0,14.91-3.47,19.67-10.01,7.89-10.85,5.49-26.05-5.36-33.94l-117.88-85.7c-10.86-7.88-26.04-5.49-33.94,5.37-7.89,10.85-5.49,26.05,5.36,33.94Z"/>
  <path class="cls-1" d="M1050.08,324.45c2.52.83,5.08,1.22,7.59,1.22,10.21,0,19.72-6.49,23.08-16.72l44.99-136.91c4.19-12.75-2.75-26.48-15.49-30.67-12.77-4.19-26.49,2.75-30.67,15.5l-44.99,136.91c-4.19,12.75,2.75,26.48,15.49,30.67Z"/>
  <path class="cls-1" d="M839.25,308.95c3.36,10.23,12.87,16.72,23.08,16.72,2.52,0,5.07-.39,7.59-1.22,12.75-4.19,19.68-17.92,15.49-30.67l-44.99-136.91c-4.19-12.75-17.92-19.69-30.67-15.5-12.75,4.19-19.68,17.92-15.49,30.67l44.99,136.91Z"/>
  <path class="cls-1" d="M369.74,440.31l-145.78-145.78c-.57-.57-1.17-1.12-1.8-1.63-.06-.05-.11-.09-.17-.13-.56-.45-1.15-.88-1.75-1.29-.09-.06-.18-.12-.27-.17-.58-.38-1.17-.73-1.79-1.06-.09-.05-.19-.09-.28-.14-.62-.32-1.25-.61-1.9-.88-.07-.03-.15-.06-.22-.09-.67-.27-1.34-.51-2.04-.71-.05-.01-.09-.03-.14-.04-.71-.21-1.43-.39-2.16-.53-.03,0-.05,0-.08-.01-.74-.14-1.49-.25-2.25-.32-.01,0-.03,0-.04,0-.76-.07-1.53-.11-2.3-.11s-1.54.04-2.3.11c-.01,0-.03,0-.04,0-.76.07-1.51.18-2.25.32-.03,0-.05,0-.08.01-.73.14-1.46.32-2.17.53-.05.01-.09.03-.14.04-.69.21-1.37.45-2.04.71-.07.03-.15.06-.22.09-.65.27-1.28.56-1.9.88-.09.05-.19.09-.28.14-.61.33-1.21.68-1.79,1.06-.09.06-.18.11-.27.17-.6.4-1.19.83-1.75,1.29-.06.05-.11.09-.17.13-.63.51-1.23,1.06-1.8,1.63L43.82,440.31c-9.49,9.49-9.49,24.87,0,34.36,9.48,9.49,24.88,9.49,34.36,0l104.31-104.31v378.7c0,13.42,10.88,24.3,24.3,24.3s24.3-10.88,24.3-24.3v-378.7l104.31,104.31c4.74,4.74,10.96,7.12,17.18,7.12s12.44-2.37,17.18-7.12c9.49-9.49,9.49-24.87,0-34.36Z"/>
  <path class="cls-1" d="M1876.18,440.31l-145.78-145.78c-.57-.57-1.17-1.12-1.8-1.63-.06-.05-.11-.09-.17-.13-.56-.45-1.15-.88-1.75-1.29-.09-.06-.18-.12-.27-.17-.58-.38-1.17-.73-1.79-1.06-.09-.05-.19-.1-.28-.14-.62-.32-1.25-.61-1.9-.88-.07-.03-.15-.06-.22-.09-.67-.27-1.35-.51-2.04-.71-.05-.01-.09-.03-.14-.04-.71-.21-1.43-.39-2.17-.53-.03,0-.05,0-.08-.01-.74-.14-1.49-.25-2.25-.32-.01,0-.03,0-.04,0-.76-.07-1.53-.11-2.3-.11s-1.54.04-2.3.11c-.01,0-.03,0-.04,0-.76.07-1.51.18-2.25.32-.03,0-.05,0-.08.01-.73.14-1.46.32-2.16.53-.05.01-.09.03-.14.04-.69.21-1.37.45-2.04.71-.07.03-.15.06-.22.09-.65.27-1.28.56-1.9.88-.09.05-.19.09-.28.14-.61.33-1.21.68-1.79,1.06-.09.06-.18.11-.27.17-.6.4-1.19.83-1.75,1.29-.06.05-.11.09-.17.13-.63.51-1.23,1.06-1.8,1.63l-145.78,145.78c-9.49,9.49-9.49,24.87,0,34.36,9.48,9.49,24.88,9.49,34.36,0l104.31-104.31v378.7c0,13.42,10.88,24.3,24.3,24.3s24.3-10.88,24.3-24.3v-378.7l104.31,104.31c4.74,4.74,10.96,7.12,17.18,7.12s12.44-2.37,17.18-7.12c9.49-9.49,9.49-24.87,0-34.36Z"/>
</svg>