<?xml version="1.0" encoding="utf-8"?>
<!-- Generator: Adobe Illustrator 28.1.0, SVG Export Plug-In . SVG Version: 6.00 Build 0)  -->
<svg version="1.1" id="Layer_1" xmlns="http://www.w3.org/2000/svg" xmlns:xlink="http://www.w3.org/1999/xlink" x="0px" y="0px"
	 viewBox="0 0 1920 913.5" style="enable-background:new 0 0 1920 913.5;" xml:space="preserve">
<style type="text/css">
	.st0{fill:#37304B;}
</style>
<path class="st0" d="M741.3,626.1c13.4,0,24.3-10.9,24.3-24.3c0-107.2,87.2-194.4,194.4-194.4s194.4,87.2,194.4,194.4
	c0,13.4,10.9,24.3,24.3,24.3s24.3-10.9,24.3-24.3c0-134-109-243-243-243s-243,109-243,243C717,615.2,727.9,626.1,741.3,626.1
	L741.3,626.1z"/>
<path class="st0" d="M1518.8,723.3H401.2c-13.4,0-24.3,10.9-24.3,24.3s10.9,24.3,24.3,24.3h1117.7c13.4,0,24.3-10.9,24.3-24.3
	S1532.3,723.3,1518.8,723.3L1518.8,723.3z"/>
<path class="st0" d="M1251.6,601.8c0,13.4,10.9,24.3,24.3,24.3h145.8c13.4,0,24.3-10.9,24.3-24.3s-10.9-24.3-24.3-24.3h-145.8
	C1262.4,577.5,1251.6,588.4,1251.6,601.8z"/>
<path class="st0" d="M498.4,626.1h145.8c13.4,0,24.3-10.9,24.3-24.3s-10.9-24.3-24.3-24.3H498.4c-13.4,0-24.3,10.9-24.3,24.3
	S484.9,626.1,498.4,626.1z"/>
<path class="st0" d="M1215.6,440.5c5,0,9.9-1.5,14.3-4.6l117.9-85.7c10.8-7.9,13.2-23.1,5.4-33.9c-7.9-10.9-23.1-13.2-33.9-5.4
	l-117.9,85.7c-10.8,7.9-13.2,23.1-5.4,33.9C1200.7,437,1208.1,440.5,1215.6,440.5L1215.6,440.5z"/>
<path class="st0" d="M572.2,350.1l117.9,85.7c4.3,3.1,9.3,4.6,14.3,4.6c7.5,0,14.9-3.5,19.7-10c7.9-10.9,5.5-26-5.4-33.9
	l-117.9-85.7c-10.9-7.9-26-5.5-33.9,5.4C559,327,561.4,342.2,572.2,350.1L572.2,350.1z"/>
<path class="st0" d="M1050.1,324.5c2.5,0.8,5.1,1.2,7.6,1.2c10.2,0,19.7-6.5,23.1-16.7l45-136.9c4.2-12.8-2.8-26.5-15.5-30.7
	c-12.8-4.2-26.5,2.8-30.7,15.5l-45,136.9C1030.4,306.5,1037.3,320.3,1050.1,324.5L1050.1,324.5z"/>
<path class="st0" d="M839.2,309c3.4,10.2,12.9,16.7,23.1,16.7c2.5,0,5.1-0.4,7.6-1.2c12.8-4.2,19.7-17.9,15.5-30.7l-45-136.9
	c-4.2-12.8-17.9-19.7-30.7-15.5s-19.7,17.9-15.5,30.7L839.2,309L839.2,309z"/>
<path class="st0" d="M1876.2,586.1c-9.5-9.5-24.9-9.5-34.4,0l-104.3,104.3V311.7c0-13.4-10.9-24.3-24.3-24.3s-24.3,10.9-24.3,24.3
	v378.7l-104.3-104.3c-4.7-4.7-11-7.1-17.2-7.1s-12.4,2.4-17.2,7.1c-9.5,9.5-9.5,24.9,0,34.4L1696,766.2c0.6,0.6,1.2,1.1,1.8,1.6
	c0.1,0,0.1,0.1,0.2,0.1c0.6,0.5,1.2,0.9,1.8,1.3c0.1,0.1,0.2,0.1,0.3,0.2c0.6,0.4,1.2,0.7,1.8,1.1c0.1,0,0.2,0.1,0.3,0.1
	c0.6,0.3,1.2,0.6,1.9,0.9c0.1,0,0.2,0.1,0.2,0.1c0.7,0.3,1.3,0.5,2,0.7c0.1,0,0.1,0,0.1,0c0.7,0.2,1.4,0.4,2.2,0.5c0,0,0.1,0,0.1,0
	c0.7,0.1,1.5,0.2,2.2,0.3c0,0,0,0,0,0c0.8,0.1,1.5,0.1,2.3,0.1s1.5,0,2.3-0.1c0,0,0,0,0,0c0.8-0.1,1.5-0.2,2.2-0.3c0,0,0.1,0,0.1,0
	c0.7-0.1,1.5-0.3,2.2-0.5c0.1,0,0.1,0,0.1,0c0.7-0.2,1.4-0.5,2-0.7c0.1,0,0.2-0.1,0.2-0.1c0.7-0.3,1.3-0.6,1.9-0.9
	c0.1,0,0.2-0.1,0.3-0.1c0.6-0.3,1.2-0.7,1.8-1.1c0.1-0.1,0.2-0.1,0.3-0.2c0.6-0.4,1.2-0.8,1.8-1.3c0.1,0,0.1-0.1,0.2-0.1
	c0.6-0.5,1.2-1.1,1.8-1.6l145.8-145.8C1885.7,611,1885.7,595.6,1876.2,586.1L1876.2,586.1z"/>
<path class="st0" d="M369.7,586.1c-9.5-9.5-24.9-9.5-34.4,0L231.1,690.4V311.7c0-13.4-10.9-24.3-24.3-24.3s-24.3,10.9-24.3,24.3
	v378.7L78.2,586.1c-4.7-4.7-11-7.1-17.2-7.1s-12.4,2.4-17.2,7.1c-9.5,9.5-9.5,24.9,0,34.4l145.8,145.8c0.6,0.6,1.2,1.1,1.8,1.6
	c0.1,0,0.1,0.1,0.2,0.1c0.6,0.5,1.1,0.9,1.8,1.3c0.1,0.1,0.2,0.1,0.3,0.2c0.6,0.4,1.2,0.7,1.8,1.1c0.1,0,0.2,0.1,0.3,0.1
	c0.6,0.3,1.2,0.6,1.9,0.9c0.1,0,0.1,0.1,0.2,0.1c0.7,0.3,1.4,0.5,2,0.7c0.1,0,0.1,0,0.1,0c0.7,0.2,1.4,0.4,2.2,0.5c0,0,0.1,0,0.1,0
	c0.7,0.1,1.5,0.2,2.2,0.3c0,0,0,0,0,0c0.8,0.1,1.5,0.1,2.3,0.1s1.5,0,2.3-0.1c0,0,0,0,0,0c0.8-0.1,1.5-0.2,2.2-0.3c0,0,0.1,0,0.1,0
	c0.7-0.1,1.5-0.3,2.2-0.5c0.1,0,0.1,0,0.1,0c0.7-0.2,1.4-0.5,2-0.7c0.1,0,0.1-0.1,0.2-0.1c0.6-0.3,1.3-0.6,1.9-0.9
	c0.1,0,0.2-0.1,0.3-0.1c0.6-0.3,1.2-0.7,1.8-1.1c0.1-0.1,0.2-0.1,0.3-0.2c0.6-0.4,1.2-0.8,1.8-1.3c0.1,0,0.1-0.1,0.2-0.1
	c0.6-0.5,1.2-1.1,1.8-1.6l145.8-145.8C379.2,611,379.2,595.6,369.7,586.1L369.7,586.1z"/>
</svg>
