<?xml version="1.0" encoding="utf-8"?>
<!-- Generator: Adobe Illustrator 28.1.0, SVG Export Plug-In . SVG Version: 6.00 Build 0)  -->
<svg version="1.1" id="Layer_1" xmlns="http://www.w3.org/2000/svg" xmlns:xlink="http://www.w3.org/1999/xlink" x="0px" y="0px"
	 viewBox="0 0 1920 913.5" style="enable-background:new 0 0 1920 913.5;" xml:space="preserve">
<style type="text/css">
	.st0{fill:#37304B;}
</style>
<g>
	<path class="st0" d="M1124.6,870.6H542.8c-80.8,0-146.5-63.7-146.5-142S462,586.5,542.8,586.5c4.2,0,8.5,0.2,12.6,0.5
		c-1.2-8.4-1.9-16.9-1.9-25.3c0-103.5,86.9-187.6,193.7-187.6c99,0,181,72.4,192.3,165.5c18.1-9,38.3-13.7,59.3-13.7
		c72.1,0,130.7,56.9,130.7,126.9c0,8.4-0.8,16.7-2.5,24.9c53.7,1.2,96.9,44.1,96.9,96.5S1179.4,870.6,1124.6,870.6L1124.6,870.6z
		 M542.8,627.9c-57.9,0-105.1,45.2-105.1,100.7s47.1,100.7,105.1,100.7h581.8c32,0,57.9-24.7,57.9-55.2s-26-55.2-57.9-55.2
		c-7.7,0-15,1.3-21.6,4c-8.1,3.2-17.4,1-23.2-5.6c-5.8-6.6-6.8-16.1-2.5-23.7c7.2-12.9,10.9-26.7,10.9-40.9
		c0-47.2-40.1-85.5-89.3-85.5c-24.9,0-48.1,9.6-65.1,27.1c-6.3,6.5-16.1,8.1-24.2,4c-8.1-4.1-12.5-13-11-21.9c0.7-4,1-9,1-14.8
		c0-80.6-68.3-146.2-152.3-146.2S594.9,481,594.9,561.7c0,15,2.6,30.1,7.7,44.9c0.8,2.1,1.2,4.4,1.2,6.8l0,0v0l0,0v0l0,0v0.1
		c0,11.4-9.3,20.8-20.7,20.8c-3.2,0-6.2-0.7-8.9-2C564.4,629.4,553.8,627.9,542.8,627.9L542.8,627.9z"/>
	<path class="st0" d="M455.1,662c-0.9,0-1.7,0-2.6-0.2C349.7,649,272.2,560.8,272.2,456.8c0-114.1,92.8-206.9,206.9-206.9
		c98.3,0,181.5,66.9,202.3,162.8c2.4,11.2-4.7,22.2-15.8,24.6c-11.1,2.4-22.2-4.6-24.6-15.8c-16.7-76.7-83.2-130.2-161.9-130.2
		c-91.3,0-165.5,74.2-165.5,165.5c0,83.2,62,153.7,144.1,164c11.3,1.4,19.4,11.8,18,23.1C474.3,654.4,465.4,662,455.1,662L455.1,662
		z"/>
	<path class="st0" d="M479.1,208.5c-11.4,0-20.7-9.3-20.7-20.7V63.7c0-11.4,9.3-20.7,20.7-20.7s20.7,9.3,20.7,20.7v124.1
		C499.8,199.2,490.5,208.5,479.1,208.5L479.1,208.5z"/>
	<path class="st0" d="M288.8,287.3c-5.3,0-10.6-2-14.6-6.1l-87.8-87.8c-8.1-8.1-8.1-21.2,0-29.3c8.1-8.1,21.2-8.1,29.3,0l87.8,87.8
		c8.1,8.1,8.1,21.2,0,29.3C299.4,285.3,294.1,287.3,288.8,287.3L288.8,287.3z"/>
	<path class="st0" d="M210,477.5H86c-11.4,0-20.7-9.3-20.7-20.7s9.3-20.7,20.7-20.7H210c11.4,0,20.7,9.3,20.7,20.7
		S221.5,477.5,210,477.5z"/>
	<path class="st0" d="M201.1,755.5c-5.3,0-10.6-2-14.6-6c-8.1-8.1-8.1-21.2,0-29.3l87.7-87.8c8.1-8.1,21.2-8.1,29.3,0
		c8.1,8.1,8.1,21.2,0,29.3l-87.7,87.8C211.7,753.5,206.4,755.5,201.1,755.5L201.1,755.5z"/>
	<path class="st0" d="M669.3,287.3c-5.3,0-10.6-2-14.6-6.1c-8.1-8.1-8.1-21.2,0-29.3l87.8-87.8c8.1-8.1,21.2-8.1,29.3,0
		c8.1,8.1,8.1,21.2,0,29.3l-87.8,87.8C679.9,285.3,674.6,287.3,669.3,287.3z"/>
</g>
<g>
	<path class="st0" d="M1512.2,913.5c-104.9,0-190.3-85.4-190.3-190.3c0-51.3,20.7-100.4,57.1-136v-454
		c0-73.5,59.8-133.2,133.2-133.2s133.2,59.8,133.2,133.2v454c36.4,35.6,57.1,84.7,57.1,136C1702.5,828.2,1617.1,913.5,1512.2,913.5
		L1512.2,913.5z M1512.2,38.1c-52.5,0-95.2,42.7-95.2,95.2v462.3c0,5.4-2.3,10.6-6.4,14.2c-32.2,28.7-50.7,70.1-50.7,113.5
		c0,84,68.3,152.2,152.2,152.2s152.2-68.3,152.2-152.2c0-43.4-18.5-84.7-50.7-113.5c-4-3.6-6.4-8.8-6.4-14.2V133.3
		C1607.3,80.8,1564.6,38.1,1512.2,38.1L1512.2,38.1z"/>
	<path class="st0" d="M1512.2,837.4c-63,0-114.2-51.2-114.2-114.2c0-41.2,22-78.8,57.1-98.9V133.3c0-31.5,25.6-57.1,57.1-57.1
		s57.1,25.6,57.1,57.1v491.1c35.1,20.1,57.1,57.7,57.1,98.9C1626.3,786.2,1575.1,837.4,1512.2,837.4L1512.2,837.4z M1512.2,114.2
		c-10.5,0-19,8.5-19,19v502.8c0,7.6-4.5,14.5-11.5,17.5c-27.7,12-45.6,39.3-45.6,69.7c0,42,34.2,76.1,76.1,76.1s76.1-34.2,76.1-76.1
		c0-30.4-17.9-57.7-45.6-69.7c-7-3-11.5-9.9-11.5-17.5V133.3C1531.2,122.9,1522.5,114.2,1512.2,114.2L1512.2,114.2z"/>
	<path class="st0" d="M1835.7,190.4h-114.2c-10.5,0-19-8.5-19-19s8.5-19,19-19h114.2c10.5,0,19,8.5,19,19S1846.2,190.4,1835.7,190.4
		z"/>
	<path class="st0" d="M1835.7,304.5h-114.2c-10.5,0-19-8.5-19-19s8.5-19,19-19h114.2c10.5,0,19,8.5,19,19S1846.2,304.5,1835.7,304.5
		z"/>
	<path class="st0" d="M1835.7,418.7h-114.2c-10.5,0-19-8.5-19-19s8.5-19,19-19h114.2c10.5,0,19,8.5,19,19S1846.2,418.7,1835.7,418.7
		z"/>
	<path class="st0" d="M1835.7,532.9h-114.2c-10.5,0-19-8.5-19-19s8.5-19,19-19h114.2c10.5,0,19,8.5,19,19S1846.2,532.9,1835.7,532.9
		z"/>
</g>
</svg>
