<?xml version="1.0" encoding="UTF-8"?>
<svg id="Layer_1" data-name="Layer 1" xmlns="http://www.w3.org/2000/svg" viewBox="0 0 1920 913.51">
  <defs>
    <style>
      .cls-1 {
        fill: #192426;
        stroke-width: 0px;
      }
    </style>
  </defs>
  <g>
    <path class="cls-1" d="M1124.63,870.61h-581.84c-80.75,0-146.45-63.72-146.45-142.05s65.7-142.09,146.45-142.09c4.24,0,8.45.17,12.61.5-1.24-8.42-1.86-16.88-1.86-25.32,0-103.46,86.91-187.63,193.73-187.63,99.05,0,180.97,72.42,192.31,165.49,18.09-8.99,38.26-13.74,59.29-13.74,72.06,0,130.69,56.92,130.69,126.89,0,8.43-.84,16.74-2.53,24.88,53.67,1.25,96.93,44.06,96.93,96.52s-44.56,96.54-99.33,96.54ZM542.78,627.86c-57.93,0-105.07,45.18-105.07,100.71s47.13,100.66,105.07,100.66h581.84c31.96,0,57.95-24.74,57.95-55.16s-25.99-55.16-57.95-55.16c-7.69,0-14.96,1.34-21.61,3.99-8.13,3.24-17.43,1.01-23.21-5.58-5.77-6.58-6.78-16.09-2.51-23.74,7.21-12.91,10.87-26.68,10.87-40.91,0-47.15-40.06-85.51-89.31-85.51-24.94,0-48.06,9.64-65.12,27.13-6.3,6.48-16.11,8.11-24.18,4.01-8.07-4.09-12.54-12.95-11.04-21.88.67-3.98,1.01-8.95,1.01-14.76,0-80.64-68.31-146.25-152.27-146.25s-152.35,65.61-152.35,146.25c0,14.97,2.59,30.07,7.69,44.89.76,2.14,1.18,4.43,1.2,6.79h0v.05h0v.05h0v.07c0,11.43-9.26,20.85-20.69,20.85-3.19,0-6.2-.71-8.9-1.97-9.85-3.01-20.41-4.53-31.43-4.53Z"/>
    <path class="cls-1" d="M455.12,662.05c-.86,0-1.73-.05-2.61-.16-102.8-12.93-180.32-101.1-180.32-205.09,0-114.09,92.82-206.91,206.91-206.91,98.28,0,181.47,66.94,202.31,162.79,2.42,11.17-4.66,22.19-15.83,24.61-11.14,2.43-22.19-4.65-24.61-15.82-16.67-76.66-83.23-130.2-161.88-130.2-91.27,0-165.53,74.25-165.53,165.53,0,83.18,61.95,153.7,144.1,164.03,11.34,1.43,19.37,11.77,17.95,23.11-1.31,10.46-10.23,18.11-20.5,18.11Z"/>
    <path class="cls-1" d="M479.09,208.51c-11.43,0-20.69-9.26-20.69-20.69V63.67c0-11.43,9.26-20.69,20.69-20.69s20.69,9.26,20.69,20.69v124.14c0,11.43-9.26,20.69-20.69,20.69Z"/>
    <path class="cls-1" d="M288.84,287.31c-5.29,0-10.59-2.02-14.63-6.06l-87.77-87.77c-8.08-8.08-8.08-21.18,0-29.26,8.07-8.08,21.19-8.08,29.26,0l87.77,87.77c8.08,8.08,8.08,21.18,0,29.26-4.04,4.04-9.34,6.06-14.63,6.06Z"/>
    <path class="cls-1" d="M210.04,477.53h-124.06c-11.43,0-20.69-9.26-20.69-20.69s9.26-20.69,20.69-20.69h124.06c11.43,0,20.69,9.26,20.69,20.69s-9.26,20.69-20.69,20.69Z"/>
    <path class="cls-1" d="M201.14,755.52c-5.29,0-10.58-2.02-14.62-6.05-8.08-8.07-8.09-21.18-.02-29.26l87.69-87.77c8.08-8.08,21.18-8.09,29.26-.01,8.08,8.07,8.09,21.18.02,29.26l-87.69,87.77c-4.04,4.04-9.34,6.07-14.64,6.07Z"/>
    <path class="cls-1" d="M669.27,287.31c-5.3,0-10.59-2.02-14.63-6.06-8.08-8.08-8.08-21.18,0-29.26l87.85-87.81c8.09-8.08,21.19-8.07,29.26,0,8.08,8.08,8.08,21.18,0,29.26l-87.85,87.81c-4.04,4.04-9.34,6.06-14.63,6.06Z"/>
  </g>
  <g>
    <path class="cls-1" d="M1512.15,913.55c-104.94,0-190.31-85.38-190.31-190.31,0-51.34,20.7-100.41,57.09-135.98V133.26C1378.93,59.8,1438.69.04,1512.15.04s133.22,59.76,133.22,133.22v454c36.39,35.62,57.09,84.69,57.09,135.97,0,104.94-85.38,190.31-190.31,190.31ZM1512.15,38.1c-52.47,0-95.16,42.69-95.16,95.16v462.26c0,5.43-2.32,10.6-6.37,14.21-32.24,28.72-50.72,70.09-50.72,113.51,0,83.95,68.3,152.25,152.25,152.25s152.25-68.3,152.25-152.25c0-43.36-18.49-84.74-50.74-113.52-4.04-3.61-6.36-8.78-6.36-14.2V133.26c0-52.47-42.69-95.16-95.16-95.16Z"/>
    <path class="cls-1" d="M1512.15,837.42c-62.96,0-114.19-51.23-114.19-114.19,0-41.25,22.04-78.81,57.09-98.89V133.26c0-31.48,25.61-57.09,57.09-57.09s57.09,25.61,57.09,57.09v491.09c35.06,20.11,57.09,57.66,57.09,98.88,0,62.96-51.23,114.19-114.19,114.19ZM1512.15,114.23c-10.5,0-19.03,8.54-19.03,19.03v502.81c0,7.6-4.52,14.47-11.49,17.47-27.7,11.95-45.6,39.3-45.6,69.69,0,41.98,34.15,76.13,76.13,76.13s76.13-34.15,76.13-76.13c0-30.36-17.9-57.72-45.61-69.69-6.97-3.01-11.48-9.88-11.48-17.47V133.26c0-10.32-8.72-19.03-19.03-19.03Z"/>
    <path class="cls-1" d="M1835.69,190.35h-114.19c-10.51,0-19.03-8.52-19.03-19.03s8.52-19.03,19.03-19.03h114.19c10.51,0,19.03,8.52,19.03,19.03s-8.52,19.03-19.03,19.03Z"/>
    <path class="cls-1" d="M1835.69,304.54h-114.19c-10.51,0-19.03-8.52-19.03-19.03s8.52-19.03,19.03-19.03h114.19c10.51,0,19.03,8.52,19.03,19.03s-8.52,19.03-19.03,19.03Z"/>
    <path class="cls-1" d="M1835.69,418.73h-114.19c-10.51,0-19.03-8.52-19.03-19.03s8.52-19.03,19.03-19.03h114.19c10.51,0,19.03,8.52,19.03,19.03s-8.52,19.03-19.03,19.03Z"/>
    <path class="cls-1" d="M1835.69,532.92h-114.19c-10.51,0-19.03-8.52-19.03-19.03s8.52-19.03,19.03-19.03h114.19c10.51,0,19.03,8.52,19.03,19.03s-8.52,19.03-19.03,19.03Z"/>
  </g>
</svg>