<?xml version="1.0" encoding="utf-8"?>
<!-- Generator: Adobe Illustrator 28.1.0, SVG Export Plug-In . SVG Version: 6.00 Build 0)  -->
<svg version="1.1" id="Layer_1" xmlns="http://www.w3.org/2000/svg" xmlns:xlink="http://www.w3.org/1999/xlink" x="0px" y="0px"
	 viewBox="0 0 1920 913.5" style="enable-background:new 0 0 1920 913.5;" xml:space="preserve">
<style type="text/css">
	.st0{fill:#37304B;}
</style>
<g>
	<path class="st0" d="M914.3,365.4H434.7c-12.6,0-22.8-10.2-22.8-22.8s10.2-22.8,22.8-22.8h479.6c75.6,0,137-61.5,137-137
		s-61.5-137-137-137s-137,61.5-137,137c0,12.6-10.2,22.8-22.8,22.8s-22.8-10.2-22.8-22.8C731.6,82,813.6,0,914.3,0
		S1097,82,1097,182.7S1015.1,365.4,914.3,365.4z"/>
	<path class="st0" d="M1097,913.5c-100.7,0-182.7-82-182.7-182.7c0-12.6,10.2-22.8,22.8-22.8s22.8,10.2,22.8,22.8
		c0,75.6,61.5,137,137,137s137-61.5,137-137s-61.5-137-137-137H434.7c-12.6,0-22.8-10.2-22.8-22.8s10.2-22.8,22.8-22.8H1097
		c100.7,0,182.7,82,182.7,182.7S1197.8,913.5,1097,913.5L1097,913.5z"/>
	<path class="st0" d="M1348.2,456.8h-274.1c-12.6,0-22.8-10.2-22.8-22.8s10.2-22.8,22.8-22.8h274.1c63,0,114.2-51.2,114.2-114.2
		s-51.2-114.2-114.2-114.2S1234,234,1234,297c0,12.6-10.2,22.8-22.8,22.8s-22.8-10.2-22.8-22.8c0-88.1,71.7-159.9,159.9-159.9
		s159.9,71.7,159.9,159.9S1436.4,456.7,1348.2,456.8L1348.2,456.8z"/>
</g>
<path class="st0" d="M937.2,479.6H296.3c-12.6,0-22.8-10.2-22.8-22.8s10.2-22.8,22.8-22.8h640.8c12.6,0,22.8,10.2,22.8,22.8
	S949.8,479.6,937.2,479.6L937.2,479.6z"/>
<path class="st0" d="M823,684.9H366.2c-12.6,0-22.8-10.2-22.8-22.8s10.2-22.8,22.8-22.8H823c12.6,0,22.8,10.2,22.8,22.8
	S835.6,684.9,823,684.9z"/>
<path class="st0" d="M616.8,274.3H366.2c-12.6,0-22.8-10.2-22.8-22.8s10.2-22.8,22.8-22.8h250.5c12.6,0,22.8,10.2,22.8,22.8
	C639.6,264.1,629.4,274.3,616.8,274.3z"/>
</svg>
