<?xml version="1.0" encoding="UTF-8"?>
<svg id="Layer_1" data-name="Layer 1" xmlns="http://www.w3.org/2000/svg" viewBox="0 0 1920 913.51">
  <defs>
    <style>
      .cls-1 {
        fill: #192426;
        stroke-width: 0px;
      }
    </style>
  </defs>
  <g>
    <path class="cls-1" d="M914.32,365.4h-479.59c-12.61,0-22.84-10.23-22.84-22.84s10.23-22.84,22.84-22.84h479.59c75.56,0,137.03-61.47,137.03-137.03s-61.47-137.03-137.03-137.03-137.03,61.47-137.03,137.03c0,12.61-10.23,22.84-22.84,22.84s-22.84-10.23-22.84-22.84C731.62,81.96,813.58,0,914.32,0s182.7,81.96,182.7,182.7-81.96,182.7-182.7,182.7Z"/>
    <path class="cls-1" d="M1097.03,913.51c-100.74,0-182.7-81.96-182.7-182.7,0-12.61,10.23-22.84,22.84-22.84s22.84,10.23,22.84,22.84c0,75.56,61.47,137.03,137.03,137.03s137.03-61.47,137.03-137.03-61.47-137.03-137.03-137.03H434.73c-12.61,0-22.84-10.23-22.84-22.84s10.23-22.84,22.84-22.84h662.29c100.74,0,182.7,81.96,182.7,182.7s-81.96,182.7-182.7,182.7Z"/>
    <path class="cls-1" d="M1348.24,456.75h-274.05c-12.61,0-22.84-10.23-22.84-22.84s10.23-22.84,22.84-22.84h274.05c62.97,0,114.19-51.22,114.19-114.19s-51.22-114.19-114.19-114.19-114.19,51.22-114.19,114.19c0,12.61-10.23,22.84-22.84,22.84s-22.84-10.23-22.84-22.84c0-88.15,71.71-159.86,159.86-159.86s159.86,71.71,159.86,159.86-71.71,159.86-159.86,159.86Z"/>
  </g>
  <path class="cls-1" d="M937.16,479.59H296.34c-12.61,0-22.84-10.23-22.84-22.84s10.23-22.84,22.84-22.84h640.82c12.61,0,22.84,10.23,22.84,22.84s-10.23,22.84-22.84,22.84Z"/>
  <path class="cls-1" d="M822.97,684.88h-456.75c-12.61,0-22.84-10.23-22.84-22.84s10.23-22.84,22.84-22.84h456.75c12.61,0,22.84,10.23,22.84,22.84s-10.23,22.84-22.84,22.84Z"/>
  <path class="cls-1" d="M616.75,274.3h-250.53c-12.61,0-22.84-10.23-22.84-22.84s10.23-22.84,22.84-22.84h250.53c12.61,0,22.84,10.23,22.84,22.84s-10.23,22.84-22.84,22.84Z"/>
</svg>